<svg xmlns="http://www.w3.org/2000/svg" height="48" viewBox="0 96 960 960" width="48"><path d="M141.435 546q-32.191 0-54.748-22.563-22.557-22.563-22.557-54.981v-161.63q0-32.289 22.557-54.916 22.557-22.627 54.748-22.627h393.043V546H141.435Zm-2.87-74.674h321.478v-167.13H138.565v167.13Zm2.87 451.152q-32.191 0-54.748-22.557-22.557-22.556-22.557-54.747v-161.87q0-32.19 22.557-54.747Q109.244 606 141.435 606h473.043v316.478H141.435Zm-2.87-74.674h401.478v-167.13H138.565v167.13Zm535.913 74.674V546h-80V229.283h298.87l-80 249.674h80.239L674.478 922.478ZM188.804 797.804h67.131v-67.13h-67.131v67.13Zm0-376.478h67.131v-67.13h-67.131v67.13Zm-50.239 50v-167.13 167.13Zm0 376.478v-167.13 167.13Z"/></svg>