<svg xmlns="http://www.w3.org/2000/svg" height="48" viewBox="0 96 960 960" width="48"><path d="m479.761 955.87-50.674-46.196Q320.036 808.27 249.04 736.07q-70.997-72.2-112.616-129.059-41.62-56.859-57.74-103.217-16.119-46.359-16.119-93.622 0-96.145 65.601-161.637Q193.768 183.043 289 183.043q54.547 0 103.774 25.261 49.226 25.261 86.987 73.783 42.761-50.522 90.41-74.783 47.65-24.261 100.351-24.261 95.638 0 161.276 65.499 65.637 65.498 65.637 161.654 0 47.232-16.239 93.474-16.239 46.243-57.739 103.102-41.5 56.858-112.465 129.205-70.964 72.347-180.318 173.697l-50.913 46.196Zm-.12-102.5q101.878-93.517 167.781-160.042 65.904-66.524 104.045-116.426Q789.609 527 804.87 487.568q15.26-39.431 15.26-77.485 0-64.692-41.988-107.213-41.989-42.522-107.279-42.522-50.162 0-94.034 32.119-43.872 32.12-67.307 85.077h-60.283q-22.375-52.196-66.945-84.696-44.571-32.5-93.479-32.5-65.206 0-106.956 42.082-41.75 42.083-41.75 108.081 0 38.227 15.366 78.006 15.366 39.778 53.902 89.772 38.536 49.994 103.819 116.515 65.282 66.522 166.445 158.566Zm.598-297.131Z"/></svg>