<svg xmlns="http://www.w3.org/2000/svg" height="48" viewBox="0 96 960 960" width="48"><path d="M480.261 993.196q-87.901 0-164.716-32.04-76.816-32.04-132.738-87.963-55.923-55.922-87.963-132.738-32.04-76.815-32.04-164.575 0-87.753 32.043-164.201 32.042-76.447 88.161-132.635 56.119-56.187 132.562-88.333 76.443-32.146 164.862-32.146 75.807 0 141.979 23.32 66.172 23.32 119.915 66.245l-55.587 55.587q-42.885-31.212-95.182-49.41Q539.26 236.109 480 236.109q-144.708 0-242.3 97.444-97.591 97.445-97.591 242.348 0 144.903 97.591 242.447 97.592 97.543 242.3 97.543 36.069 0 69.164-6.744t63.206-19.538l59.347 59.587q-43.655 20.904-91.618 32.452-47.962 11.548-99.838 11.548Zm281.587-99.044v-120h-120v-77.304h120v-120h77.304v120h120v77.304h-120v120h-77.304ZM420.522 768.717l-174.761-175.76 56.152-56.392 118.609 118.609 420.521-420.761 57.392 56.391-477.913 477.913Z"/></svg>