<svg xmlns="http://www.w3.org/2000/svg" height="48" viewBox="0 96 960 960" width="48"><path d="M439.761 556.239Zm0 399.631-71.522-67.522Q262 791.826 194.641 724.467q-67.358-67.358-105.597-119.076-38.24-51.717-52.36-94.096-14.119-42.379-14.119-90.599 0-95.65 65.616-163.39Q153.796 189.565 249 189.565q54.547 0 103.774 24.641 49.226 24.642 86.987 73.403 42.761-50.522 90.41-74.283 47.65-23.761 100.351-23.761 85.337 0 146.907 59.641Q839 308.848 850.957 394.848h-76.501q-8-52.37-44.923-90.054-36.924-37.685-99.011-37.685-47.522 0-93.044 30.88Q491.957 328.87 478 379.826h-76q-15.196-49.956-60.075-81.337-44.88-31.38-92.851-31.38-66.4 0-107.683 43.958-41.282 43.958-41.282 109.134 0 41.277 15.257 78.643 15.258 37.365 53.783 85.021 38.525 47.656 104.558 112.031 66.034 64.374 166.054 157.474 28.804-27.283 49.467-45.207t46.946-41.685l8.65 8.65q8.65 8.649 18.312 18.671 9.663 10.023 18.405 18.025l8.742 8.002q-25.761 22.761-46.899 41.895-21.137 19.134-52.71 47.953l-50.913 46.196Zm260.891-171.718v-130h-130v-77.304h130v-130h77.305v130h130v77.304h-130v130h-77.305Z"/></svg>