<svg xmlns="http://www.w3.org/2000/svg" height="48" viewBox="0 96 960 960" width="48"><path d="M480 987.065 110.413 775.913V364.848L480 163.935l370.587 200.913v411.065L480 987.065ZM364.761 469.043q23.239-23 53.239-36.88 30-13.88 62-13.88t62 14q30 14 53.239 36.76L732.565 388 480 253.957 228.435 388l136.326 81.043Zm78.522 408.522V728.478q-53.24-14.761-86.62-56.5-33.38-41.739-33.38-95.978 0-10.239 1-20.88 1-10.642 4.76-20.642l-141.326-84.282v280.326l255.566 147.043ZM480 658.283q34.522 0 58.902-23.881 24.381-23.88 24.381-58.402 0-34.522-24.381-58.902-24.38-24.381-58.902-24.381-34.522 0-58.402 24.381-23.881 24.38-23.881 58.902 0 34.522 23.881 58.402 23.88 23.881 58.402 23.881Zm37.717 219.282 255.566-147.043V450.196l-141.087 84.282q2.521 10 4.021 20.642 1.5 10.641 1.5 20.88 0 54.239-33.88 95.978t-86.12 56.5v149.087Z"/></svg>